PathFileType	4	(X/Y/Z)	pose_F01_0-86.trc
DataRate	CameraRate	NumFrames	NumMarkers	Units	OrigDataRate	OrigDataStartFrame	OrigNumFrames
30	30	7	21	m	30	43	86
Frame#	Time	CHip			RHip			RKnee			RAnkle			RBigToe			RSmallToe			RHeel			LHip			LKnee			LAnkle			LBigToe			LSmallToe			LHeel			Neck			Nose			RShoulder			RElbow			RWrist			LShoulder			LElbow			LWrist			
		X1	Y1	Z1	X2	Y2	Z2	X3	Y3	Z3	X4	Y4	Z4	X5	Y5	Z5	X6	Y6	Z6	X7	Y7	Z7	X8	Y8	Z8	X9	Y9	Z9	X10	Y10	Z10	X11	Y11	Z11	X12	Y12	Z12	X13	Y13	Z13	X14	Y14	Z14	X15	Y15	Z15	X16	Y16	Z16	X17	Y17	Z17	X18	Y18	Z18	X19	Y19	Z19	X20	Y20	Z20	X21	Y21	Z21	
43	1.4333333333333333	-0.26315986829437343	1.8504506759418162	-0.43642443912230416	-0.27347226058143514	1.846095869154177	-0.36975423000823254	-0.27997796479007914	1.6995335915902097	-0.3558691701044201	-0.282826578053294	1.5666973128021549	-0.34100784770255466	-0.25312039338377623	1.5366505195289755	-0.36181055233538484	-0.2600666243187135	1.5365402823460035	-0.32493347795660427	-0.2855014592427029	1.5588398038537592	-0.34686464629288044	-0.252595654734941	1.8521943617034693	-0.4970274718582396	-0.27033698906567694	1.7083762898094914	-0.4598300323075353	-0.27288500315013553	1.5742260073197254	-0.45637013951355304	-0.24321494659086568	1.5462734870007702	-0.48999107176519574	-0.24658478728444216	1.5550485074169218	-0.5103301710392684	-0.2745845886128882	1.5652097008087567	-0.4397320043894619	-0.26989414635996084	2.0007179469820793	-0.4553489247858295	-0.25876807709480026	2.060331692665531	-0.4628408627217466	-0.28274862674833295	1.9981242031212774	-0.37462157265214935	-0.25120999370092867	1.9620415196083247	-0.34077400294655463	-0.2607054871170008	2.0141728474415994	-0.42287132290075125	-0.25235733790343146	2.0047161984558453	-0.5352323898869265	-0.21587791038449747	1.983766143690309	-0.6090519916761602	-0.24273885660441863	2.022796562169127	-0.5184498919411837
44	1.4666666666666666	-0.26187281683716396	1.8485211894171405	-0.44150096317817944	-0.2724840232891471	1.8457695412843709	-0.3751395307912813	-0.27976979385167555	1.6978715635382158	-0.3559145711186032	-0.28087685595883416	1.5660459032908127	-0.3430437712647016	-0.25504523797470835	1.5368656700387373	-0.35982317748395715	-0.25998636991152807	1.5382479069528983	-0.3255195600429785	-0.2851906004664179	1.559822855585418	-0.3474264646726943	-0.2522394222821936	1.8504366445229965	-0.4968906930362834	-0.2692645280185481	1.7040180317136568	-0.46480621806853145	-0.2730563377409564	1.5755332956666226	-0.4561148748629139	-0.24415182231394156	1.5455704742232645	-0.4932869125687769	-0.2476257815815262	1.5548697977573123	-0.5135695684353917	-0.2744941933283857	1.564908014609375	-0.4396615030240538	-0.2699709059908867	1.9992245895611127	-0.45478853081610704	-0.253373300197624	2.058072701730243	-0.47811324436553354	-0.28570481473562265	1.9939808959622012	-0.37483264463613053	-0.2504546117239615	1.9611723815333948	-0.3378504500773247	-0.2547814017955098	2.013515617113321	-0.41284768727367654	-0.25632795048810747	2.003074313505913	-0.5305068480656797	-0.22348989693302418	1.980204887890338	-0.6053161159171062	-0.2457958731410102	2.0177205541219654	-0.5185300716718956
45	1.5	-0.2642297804688088	1.8505447833704836	-0.43970406649204447	-0.274816817193629	1.8465288362554042	-0.37317118897073703	-0.2796598570815383	1.7003570776266141	-0.3563957419790005	-0.28064115099862225	1.5643524607255368	-0.3432751774001107	-0.25297207945108346	1.5358850367738581	-0.36188005025557823	-0.261018202669197	1.535618024212907	-0.3282188559756768	-0.2851946434185115	1.5596051345610629	-0.3474269787672283	-0.2535218946431629	1.8535064266668901	-0.5005811667646477	-0.2689333365151486	1.7050395166212602	-0.46526331928212633	-0.27288415839496205	1.5770096382781134	-0.45660961031287933	-0.2442974250255341	1.5461234967733735	-0.4933226225656302	-0.2476710900678954	1.555079040873257	-0.5136036107214895	-0.27405391947953456	1.56773683364802	-0.44071405539474284	-0.2701217150939999	1.9983221500309267	-0.4547786993848937	-0.25081392125868335	2.0501889357970966	-0.4762087876399596	-0.2816892648896387	1.993947083734794	-0.37028764399718705	-0.25713697924229556	1.9441753226484644	-0.3370457253259365	-0.2579275548431719	2.008493829772949	-0.4207351016808789	-0.26439551663505495	2.003327156408314	-0.530263678200742	-0.22735200430685298	1.9709665782900316	-0.5969699144380439	-0.24601226978447652	2.0137567543405166	-0.5181804583775252
46	1.5333333333333334	-0.2648857460886077	1.846115364469505	-0.43897560322616325	-0.2752265989698563	1.8414219113203756	-0.3723633236494331	-0.2798940373311305	1.6967290976195384	-0.3555465341376461	-0.28060566456892017	1.56434362589067	-0.34332614555716007	-0.25490262522674045	1.5359391924651677	-0.3597882841844294	-0.26094166915990663	1.537371544138854	-0.3287304811404705	-0.28545487423850957	1.5586940650273837	-0.34698306636105625	-0.255301893417726	1.8474839512960703	-0.5028052914178752	-0.2693820649169441	1.705356524453368	-0.4648835167041662	-0.275038696463824	1.5757143033689394	-0.4540696395268003	-0.2441687985564079	1.545817479125846	-0.4933055831516922	-0.24762196321281346	1.5548727720892557	-0.5135288348566239	-0.2746358714447185	1.565583062202103	-0.4393702837557018	-0.2701719808825087	1.9958329126406356	-0.4542879991513155	-0.25097434660468737	2.043186190764987	-0.48327304654871606	-0.2805990020338469	1.9917881035546394	-0.36654203446321565	-0.2612564455188749	1.935987238525001	-0.33961551720834376	-0.2548456525711156	1.9953935550145794	-0.42431808451317615	-0.26153620583802806	2.001590730410123	-0.5378124906718997	-0.22724946246666422	1.9607606702539595	-0.5945695075950295	-0.24328206036467548	2.0073185262244473	-0.5164738272451014
47	1.5666666666666667	-0.2650550087835604	1.84073784159314	-0.43801883915415935	-0.2765037389762444	1.837669917874602	-0.37487380659911373	-0.28142360630360785	1.6971494752334921	-0.35851029333651085	-0.28028543806162237	1.5649908663144725	-0.3438345604322811	-0.25492947375181346	1.535986459983815	-0.3597988568401587	-0.2609374183624871	1.5372219000809415	-0.32875118005884474	-0.2852905454586936	1.560207038036893	-0.34750960302818396	-0.2544937514158783	1.8419695140242232	-0.4987863681558842	-0.27158944454766976	1.7013950384256986	-0.46200271028831397	-0.2731438326971115	1.5758013428406596	-0.4561139060342523	-0.24419629682121508	1.5481672901341312	-0.4939158444725056	-0.24777511952780826	1.5554600385210693	-0.5135319741265097	-0.27419948069201433	1.5658465897917266	-0.4401620129392093	-0.27011326350530834	1.9943224139836357	-0.4537355224857424	-0.24499544126055756	2.042381340053572	-0.4890332309011607	-0.2813649445682205	1.9890976566837055	-0.3607776393064074	-0.2747628254225078	1.9249655963012409	-0.3225760214871261	-0.26128092090512495	1.97690315462379	-0.42193298892745923	-0.2594317490608815	1.9986053776303083	-0.5390818604361974	-0.22595807276795238	1.9580095556410324	-0.5991944537388819	-0.24250901629763205	1.998191729566459	-0.5197448241983101
48	1.6	-0.26692308110095425	1.83910513134715	-0.4357025493134457	-0.27649908448259225	1.836166528160067	-0.3746480794892217	-0.28020590564949105	1.6957768282595582	-0.3552244113284656	-0.2805271576406921	1.5666655857449527	-0.3436314906744823	-0.2545122368607288	1.538083969650584	-0.36496244260039645	-0.26123715902843514	1.5390107925364704	-0.3285790831296022	-0.28521593472511736	1.5600144352538843	-0.3475234761777461	-0.25548509723156754	1.8419259065451772	-0.5019352124765042	-0.2718076268462594	1.7030432905166497	-0.46191193255051755	-0.2730948033087278	1.575586779830777	-0.4561435102956253	-0.24317262165900305	1.5460998482966661	-0.49011447128450564	-0.2475125045352565	1.5547231169576188	-0.5135435768272725	-0.2743134823224466	1.5664175431582545	-0.44024539980219674	-0.2701425370246723	1.993182906776898	-0.45403517570065377	-0.24102836948072268	2.04137573733902	-0.4929781777383602	-0.2824260500316729	1.9875726967003635	-0.3634396823658005	-0.2810875517135692	1.9174761489457577	-0.2948007653268711	-0.26116542267563303	1.9430728882807058	-0.39795164704037017	-0.2566015887088267	1.9951724150454822	-0.5467736596259782	-0.22271672635627127	1.9541775942670783	-0.6059762649628067	-0.24126155846881542	1.9986966668168225	-0.5162268019503061
49	1.6333333333333333	-0.2672239409849977	1.8369896640470254	-0.43527944881993985	-0.275721733914937	1.8336363537511138	-0.37094471625184866	-0.2812805774122202	1.6956507440005746	-0.3584101489606767	-0.28060408977134743	1.5644300716006707	-0.34329887884973476	-0.25421658712214734	1.5363378893153699	-0.3652740114390264	-0.26100841594794916	1.5376524908881153	-0.3289160960477151	-0.285267157776729	1.558005433635429	-0.3469279948747525	-0.25582808343344576	1.8395155285515141	-0.5015592828101025	-0.27207606589714156	1.7018117462337095	-0.461543274944251	-0.2733123590384047	1.577021185953727	-0.4558935259893141	-0.2439547766428298	1.5471232665146875	-0.49377749367213125	-0.249834227679257	1.5562794640280313	-0.511136097613981	-0.2748041652671141	1.5667317920376467	-0.43943343339295504	-0.2682764543680658	1.989295945513926	-0.4549895665607779	-0.24006211215856949	2.0414010511327905	-0.49831440402298954	-0.2796160496838815	1.9848013666223554	-0.3616886530818648	-0.28088436208783	1.9105646776551573	-0.2927292975524483	-0.26104992444614117	1.9092426219376217	-0.3739703051532811	-0.25354541654507085	1.9972598616456692	-0.5457745795734978	-0.2198613271304052	1.9571459737688046	-0.6058883617403276	-0.23631738868030108	1.9996856186631418	-0.5264977940168237
